<svg width="30" height="61" viewBox="0 0 30 61" fill="none" xmlns="http://www.w3.org/2000/svg">
<circle cx="8" cy="8" r="8" transform="matrix(4.37114e-08 -1 -1 -4.37114e-08 23 53.4941)" fill="white" stroke="#7ED4F5" stroke-width="0.969727"/>
<path d="M1.10252 45.9651L1.16883 45.9404C1.38436 53.3535 7.48549 59.3054 14.9793 59.3054C22.4731 59.3054 28.798 53.1471 28.798 45.5441C28.798 42.2421 27.6292 39.2042 25.6811 36.8349C25.8552 36.8349 26.0293 36.8597 26.2117 36.8927C26.278 36.901 26.3775 36.9175 26.4438 36.9258C26.5184 36.8762 26.8831 36.6203 26.9909 36.5708C28.8809 39.0721 30 42.176 30 45.5524C29.9917 53.7992 23.2689 60.4941 14.9793 60.4941C6.68969 60.4941 0.530534 54.3441 1.21821e-06 46.5595L1.10252 45.9651Z" fill="#28B4E2"/>
<path d="M15.0002 37L15.0002 1.31134e-06" stroke="url(#paint0_linear_1644_5043)" stroke-width="0.969727"/>
<defs>
<linearGradient id="paint0_linear_1644_5043" x1="15.2958" y1="-6.24269" x2="15.2958" y2="40.9021" gradientUnits="userSpaceOnUse">
<stop stop-color="#48B6E4" stop-opacity="0.1"/>
<stop offset="1" stop-color="#48B6E4"/>
</linearGradient>
</defs>
</svg>
