<svg width="265" height="392" viewBox="0 0 265 392" fill="none" xmlns="http://www.w3.org/2000/svg">
<path d="M-20.7524 66.3581C100.101 66.3581 198.072 164.329 198.072 285.182C198.072 406.035 100.101 504.006 -20.7524 504.006C-141.605 504.006 -239.576 406.035 -239.576 285.182L-305.934 285.182C-305.934 442.684 -178.254 570.364 -20.7523 570.364C136.749 570.364 264.43 442.684 264.43 285.182C264.43 127.68 136.749 -5.54541e-05 -20.7524 -4.85695e-05C-178.254 -4.16848e-05 -305.934 127.68 -305.934 285.182L-239.576 285.182C-239.576 164.329 -141.605 66.3581 -20.7524 66.3581Z" fill="url(#paint0_linear_714_24363)"/>
<defs>
<linearGradient id="paint0_linear_714_24363" x1="264.43" y1="285.182" x2="-305.934" y2="285.182" gradientUnits="userSpaceOnUse">
<stop stop-color="#65C6EE" stop-opacity="0"/>
<stop offset="1" stop-color="#65C6EE"/>
</linearGradient>
</defs>
</svg>
