<svg width="212" height="37" viewBox="0 0 212 37" fill="none" xmlns="http://www.w3.org/2000/svg">
<g clip-path="url(#clip0_1644_9639)">
<path d="M5.05426 31.7087C5.08552 31.7077 5.11671 31.7129 5.14592 31.7241C5.1792 31.7374 5.20968 31.7568 5.23591 31.7811L5.74494 32.315C5.52535 32.6014 5.23665 32.8281 4.90551 32.9743C4.5278 33.1285 4.12208 33.2033 3.71385 33.1942C3.32448 33.201 2.93791 33.128 2.57826 32.9796C2.25592 32.8451 1.96628 32.6436 1.72875 32.3887C1.49099 32.1314 1.30914 31.8281 1.19454 31.4978C1.06676 31.1375 1.00346 30.7577 1.00751 30.3757C1.00346 29.9876 1.07518 29.6023 1.21871 29.2413C1.35413 28.9045 1.55875 28.5995 1.81948 28.3457C2.08024 28.0919 2.39137 27.895 2.73305 27.7675C3.10828 27.626 3.50694 27.5557 3.90826 27.5603C4.1062 27.5595 4.30377 27.5777 4.49821 27.6147C4.67439 27.6485 4.84698 27.6987 5.01363 27.7648C5.16815 27.8285 5.31649 27.906 5.45685 27.9964C5.58568 28.0834 5.70505 28.1835 5.8131 28.295L5.37962 28.8722C5.35088 28.9084 5.31797 28.9411 5.28157 28.9697C5.23467 29.0017 5.17816 29.0169 5.12141 29.0127C5.07551 29.0132 5.03015 29.0028 4.98911 28.9824C4.94466 28.9607 4.90168 28.9362 4.86051 28.909C4.81384 28.8813 4.76515 28.8472 4.71042 28.8152C4.64827 28.7788 4.58363 28.7468 4.51702 28.7194C4.43096 28.6886 4.34258 28.6643 4.25276 28.647C4.13739 28.624 4.01987 28.6134 3.90222 28.6157C3.68222 28.612 3.46386 28.6537 3.26089 28.7381C3.07118 28.818 2.90141 28.9382 2.76361 29.0905C2.62016 29.2514 2.51047 29.4391 2.44093 29.6427C2.36075 29.8791 2.32122 30.1272 2.32408 30.3767C2.32065 30.6322 2.36014 30.8865 2.44093 31.1291C2.50778 31.3329 2.6155 31.5211 2.75756 31.6823C2.88532 31.8299 3.04451 31.9472 3.22362 32.026C3.40396 32.1028 3.59824 32.142 3.79443 32.1411C3.91128 32.1411 4.0194 32.1348 4.11375 32.1268C4.20572 32.1147 4.29635 32.0941 4.38439 32.0651C4.46564 32.0379 4.54374 32.0022 4.61741 31.9586C4.69911 31.9113 4.77543 31.8554 4.84507 31.7918C4.87525 31.7678 4.90816 31.7474 4.94311 31.7311C4.97743 31.7142 5.01534 31.706 5.05358 31.707" fill="#28B4E2"/>
<path d="M17.7982 33.1354H16.8009C16.7029 33.1396 16.606 33.113 16.5239 33.0594C16.4548 33.0098 16.4025 32.9406 16.3738 32.8608L16.0485 31.8992H13.9358L13.6104 32.8608C13.5789 32.9363 13.527 33.0015 13.4603 33.0494C13.3831 33.1088 13.2873 33.1391 13.1897 33.1351H12.1851L14.3317 27.6217H15.6526L17.7982 33.1354ZM14.2336 31.0274H15.7506L15.2406 29.5162C15.207 29.4225 15.1667 29.309 15.1238 29.1775C15.0808 29.0461 15.0348 28.9106 14.9925 28.7568C14.9518 28.9096 14.9089 29.0524 14.8665 29.1839C14.8242 29.3153 14.7829 29.4288 14.7423 29.5262L14.2336 31.0274Z" fill="#28B4E2"/>
<path d="M25.887 31.2926V33.1361H24.6003V27.6217H26.5599C26.9009 27.6151 27.2407 27.6615 27.5672 27.7592C27.8215 27.8376 28.0566 27.9677 28.2576 28.1412C28.4372 28.2956 28.5756 28.4917 28.6605 28.7121C28.749 28.9385 28.7939 29.1795 28.7928 29.4225C28.7955 29.6808 28.75 29.9374 28.6585 30.1792C28.5716 30.4062 28.4311 30.6091 28.2489 30.7708C28.0473 30.9464 27.8107 31.0776 27.5545 31.1558C27.2322 31.253 26.8966 31.2991 26.5599 31.2926H25.887ZM25.887 30.3284H26.5586C26.689 30.3407 26.8206 30.3258 26.945 30.2847C27.0694 30.2436 27.1837 30.1772 27.2808 30.0898C27.4369 29.9032 27.5156 29.6646 27.5011 29.4225C27.5022 29.3052 27.4837 29.1887 27.4464 29.0775C27.4088 28.9766 27.3489 28.8854 27.2711 28.8105C27.1877 28.7323 27.0883 28.6729 26.9796 28.6364C26.8433 28.5954 26.7013 28.5762 26.5589 28.5793H25.8874L25.887 30.3284Z" fill="#28B4E2"/>
<g filter="url(#filter0_d_1644_9639)">
<path d="M35.9646 27.6207H34.6688V33.1351H35.9646V27.6207Z" fill="#28B4E2"/>
</g>
<path d="M46.107 27.6217V28.635H44.5443V33.1361H43.2579V28.635H41.6946V27.6217H46.107Z" fill="#28B4E2"/>
<path d="M56.9494 33.1354H55.9512C55.8535 33.1396 55.7568 33.113 55.6752 33.0594C55.6057 33.0099 55.5533 32.9407 55.5241 32.8608L55.1994 31.8992H53.087L52.7617 32.8608C52.7298 32.9363 52.6774 33.0016 52.6106 33.0494C52.5333 33.1088 52.4376 33.1391 52.3399 33.1351H51.3363L53.4819 27.6217H54.8028L56.9494 33.1354ZM53.3849 31.0274H54.9009L54.3918 29.5162C54.3583 29.4225 54.318 29.309 54.275 29.1775C54.232 29.0461 54.186 28.9106 54.1427 28.7568C54.1031 28.9096 54.0601 29.0524 54.0168 29.1839C53.9735 29.3153 53.9342 29.4288 53.8936 29.5262L53.3849 31.0274Z" fill="#28B4E2"/>
<path d="M64.7512 32.1118H66.8088V33.1341H63.4618V27.622H64.7512V32.1118Z" fill="#28B4E2"/>
<path d="M79.543 31.2926V33.1361H78.2556V27.6217H80.2115C80.5523 27.6147 80.8924 27.6612 81.2188 27.7592C81.4747 27.8366 81.7114 27.9667 81.9135 28.1412C82.0922 28.2966 82.2302 28.4924 82.3165 28.7121C82.4038 28.9388 82.4474 29.1797 82.4451 29.4225C82.4488 29.6806 82.4041 29.9372 82.3138 30.1792C82.2271 30.406 82.0871 30.6089 81.9055 30.7708C81.7033 30.9457 81.4666 31.0768 81.2104 31.1558C80.8867 31.2529 80.55 31.2991 80.2122 31.2926H79.543ZM79.543 30.3283H80.2122C80.3381 30.3492 80.4674 30.3406 80.5892 30.303C80.7111 30.2653 80.8226 30.1999 80.9146 30.1118C81.0066 30.0237 81.0765 29.9154 81.1188 29.7957C81.1611 29.6759 81.1745 29.548 81.158 29.4221C81.1597 29.3045 81.1399 29.1877 81.0996 29.0771C81.0647 28.9758 81.0056 28.8842 80.9277 28.8102C80.8438 28.7312 80.743 28.6717 80.6329 28.636C80.4966 28.5946 80.3545 28.5753 80.2122 28.579H79.543V30.3283Z" fill="#28B4E2"/>
<path d="M93.3822 33.1354H92.385C92.2869 33.1396 92.1899 33.113 92.108 33.0594C92.0388 33.0098 91.9864 32.9406 91.9579 32.8608L91.6325 31.8992H89.5202L89.1948 32.8608C89.1636 32.9365 89.1115 33.0018 89.0447 33.0494C88.9675 33.1088 88.8718 33.1391 88.7741 33.1351H87.7684L89.914 27.6217H91.2313L93.3822 33.1354ZM89.816 31.0274H91.334L90.824 29.5162C90.7904 29.4225 90.7501 29.309 90.7071 29.1775C90.6642 29.0461 90.6192 28.9106 90.5758 28.7568C90.5352 28.9096 90.4932 29.0524 90.4499 29.1839C90.4066 29.3153 90.3663 29.4288 90.3267 29.5262L89.816 31.0274Z" fill="#28B4E2"/>
<path d="M101.589 31.0968V33.1351H100.302V27.6217H102.109C102.455 27.6142 102.8 27.6551 103.135 27.7431C103.387 27.8092 103.623 27.9257 103.828 28.0855C104.001 28.2229 104.135 28.4016 104.219 28.6047C104.364 28.9749 104.381 29.3828 104.267 29.7638C104.221 29.9212 104.149 30.0698 104.053 30.2036C103.956 30.3419 103.838 30.4643 103.703 30.5662C103.557 30.6764 103.396 30.764 103.224 30.8262C103.311 30.8698 103.393 30.9242 103.467 30.988C103.546 31.0523 103.612 31.1297 103.664 31.2169L104.845 33.1354H103.677C103.585 33.1429 103.492 33.1241 103.41 33.0815C103.328 33.0387 103.26 32.9739 103.213 32.8942L102.291 31.2926C102.257 31.2304 102.208 31.1781 102.147 31.1408C102.075 31.1091 101.996 31.0944 101.917 31.0978L101.589 31.0968ZM101.589 30.2149H102.109C102.261 30.2173 102.412 30.1948 102.557 30.1482C102.67 30.1089 102.773 30.0461 102.859 29.964C102.938 29.8878 102.997 29.7937 103.031 29.6897C103.069 29.5808 103.088 29.4663 103.087 29.3511C103.093 29.2446 103.074 29.1381 103.033 29.0398C102.991 28.9415 102.928 28.854 102.847 28.7838C102.633 28.631 102.373 28.5585 102.11 28.5793H101.591L101.589 30.2149Z" fill="#28B4E2"/>
<path d="M114.864 27.6217V28.635H113.3V33.1361H112.014V28.635H110.45V27.6217H114.864Z" fill="#28B4E2"/>
<path d="M122.293 27.6217C122.348 27.6217 122.394 27.6254 122.433 27.628C122.468 27.6331 122.502 27.6433 122.534 27.6584C122.568 27.6718 122.598 27.6915 122.624 27.7164C122.658 27.748 122.689 27.7814 122.719 27.8165L125.353 31.1301C125.343 31.0237 125.335 30.9203 125.332 30.8218C125.328 30.7234 125.323 30.627 125.323 30.5386V27.6217H126.459V33.1361H125.789C125.703 33.1387 125.617 33.1229 125.538 33.0897C125.459 33.0517 125.39 32.9953 125.338 32.9252L122.722 29.6387C122.727 29.7334 122.733 29.8282 122.74 29.9203C122.746 30.0124 122.75 30.0998 122.75 30.1795V33.1361H121.614V27.6217H122.293Z" fill="#28B4E2"/>
<path d="M137.14 27.6217V28.6046H134.864V29.8916H136.61V30.8378H134.864V32.1531H137.14V33.1361H133.569V27.6217H137.14Z" fill="#28B4E2"/>
<path d="M145.123 31.0968V33.1351H143.836V27.6217H145.642C145.988 27.6143 146.333 27.6552 146.667 27.7431C146.919 27.8096 147.156 27.926 147.362 28.0855C147.534 28.2227 147.668 28.4014 147.751 28.6046C147.836 28.8118 147.878 29.0335 147.875 29.257C147.876 29.4287 147.851 29.5995 147.801 29.7638C147.753 29.9206 147.681 30.069 147.586 30.2032C147.49 30.3416 147.371 30.464 147.236 30.5659C147.091 30.6759 146.929 30.7635 146.757 30.8258C146.845 30.8699 146.926 30.9242 147 30.9877C147.078 31.0522 147.144 31.1296 147.196 31.2166L148.379 33.1351H147.212C147.12 33.1427 147.027 33.124 146.945 33.0813C146.863 33.0386 146.794 32.9736 146.748 32.8939L145.824 31.2923C145.792 31.23 145.743 31.1775 145.683 31.1405C145.61 31.1088 145.532 31.0941 145.452 31.0974L145.123 31.0968ZM145.123 30.2149H145.642C145.794 30.217 145.945 30.1944 146.09 30.1482C146.203 30.1089 146.306 30.0461 146.392 29.964C146.469 29.8866 146.528 29.7929 146.563 29.6897C146.6 29.5806 146.618 29.4661 146.615 29.3511C146.622 29.245 146.604 29.1388 146.564 29.0405C146.523 28.9422 146.46 28.8545 146.38 28.7838C146.167 28.631 145.906 28.5585 145.644 28.5793H145.125L145.123 30.2149Z" fill="#28B4E2"/>
<path d="M157.653 28.7404C157.62 28.7923 157.58 28.8387 157.533 28.8779C157.484 28.9085 157.428 28.9232 157.37 28.92C157.304 28.9183 157.239 28.8995 157.182 28.8656C157.115 28.8322 157.039 28.7888 156.953 28.7441C156.859 28.6945 156.762 28.6532 156.661 28.6207C156.541 28.5829 156.415 28.5645 156.289 28.5663C156.097 28.5524 155.905 28.6065 155.749 28.7191C155.69 28.771 155.644 28.8352 155.613 28.907C155.582 28.9788 155.568 29.0565 155.571 29.1345C155.569 29.2372 155.607 29.3367 155.678 29.4114C155.76 29.4892 155.855 29.5529 155.958 29.6C156.086 29.6571 156.219 29.7051 156.354 29.7438C156.504 29.7901 156.656 29.8385 156.812 29.8929C156.967 29.947 157.118 30.0106 157.266 30.0831C157.412 30.1556 157.545 30.2499 157.662 30.3627C157.78 30.483 157.875 30.6238 157.941 30.7781C158.017 30.9652 158.053 31.1655 158.049 31.367C158.051 31.6114 158.005 31.8538 157.915 32.0811C157.828 32.3001 157.696 32.4985 157.528 32.6636C157.349 32.8351 157.137 32.968 156.905 33.054C156.634 33.1521 156.348 33.1996 156.06 33.1942C155.883 33.1929 155.706 33.1756 155.532 33.1424C155.356 33.1069 155.182 33.057 155.013 32.9933C154.849 32.9308 154.691 32.8542 154.54 32.7644C154.401 32.6813 154.272 32.5817 154.156 32.4678L154.536 31.8715C154.565 31.825 154.605 31.7868 154.653 31.7608C154.705 31.733 154.762 31.7182 154.821 31.7177C154.903 31.7198 154.983 31.7453 155.051 31.7911C155.128 31.8412 155.217 31.8912 155.312 31.9503C155.419 32.0122 155.532 32.0651 155.648 32.1084C155.792 32.1607 155.946 32.1858 156.1 32.1825C156.294 32.1941 156.486 32.1393 156.643 32.027C156.711 31.9667 156.764 31.8914 156.798 31.8072C156.831 31.723 156.845 31.6321 156.837 31.5419C156.842 31.4276 156.805 31.3154 156.732 31.2266C156.652 31.1427 156.556 31.0747 156.45 31.0264C156.322 30.9703 156.191 30.9231 156.057 30.8852C155.909 30.8459 155.759 30.7995 155.602 30.7518C155.448 30.7025 155.297 30.6425 155.151 30.5723C155.004 30.4999 154.87 30.4038 154.755 30.288C154.634 30.1608 154.539 30.0118 154.475 29.8492C154.398 29.641 154.362 29.4202 154.367 29.1986C154.368 28.9908 154.411 28.7853 154.494 28.5946C154.58 28.3956 154.706 28.2159 154.864 28.0665C155.037 27.9065 155.239 27.7812 155.46 27.6974C155.72 27.6018 155.996 27.5552 156.274 27.56C156.441 27.5594 156.607 27.5729 156.771 27.6003C157.075 27.6468 157.368 27.7492 157.635 27.9023C157.755 27.971 157.868 28.0528 157.97 28.1462L157.653 28.7404Z" fill="#28B4E2"/>
<path d="M3.6107 22.2254H1.00745V8.95396C1.00745 7.04341 1.62762 5.48498 2.86797 4.27869C3.47411 3.68537 4.19441 3.21961 4.98586 2.90928C5.77728 2.59895 6.6236 2.45042 7.47411 2.47258C9.48875 2.47258 11.0045 2.97685 12.0215 3.9854C12.518 4.46848 12.9097 5.04755 13.1722 5.68694C13.4346 6.3263 13.5624 7.01235 13.5476 7.70273C13.5476 9.57657 12.6702 10.9211 10.9155 11.7364V11.8461C13.3236 12.5324 14.5286 14.1924 14.5304 16.826C14.5304 20.4227 12.3926 22.2218 8.11712 22.2234H4.61802V19.7763H8.08723C9.37771 19.7763 10.3205 19.5159 10.9155 18.9952C11.5151 18.4769 11.8143 17.6427 11.813 16.4927C11.8388 16.0604 11.7654 15.6279 11.5982 15.2279C11.431 14.8279 11.1744 14.471 10.848 14.1841C10.0997 13.6136 9.17068 13.3281 8.22893 13.379H5.45611V11.068H7.24914C8.18061 11.0918 9.09288 10.8024 9.83829 10.2469C10.1849 9.99252 10.464 9.65819 10.6517 9.27274C10.8393 8.88733 10.9299 8.46231 10.9155 8.03439C10.9428 7.21405 10.6465 6.41553 10.0898 5.8092C9.54023 5.21504 8.64966 4.91842 7.41804 4.91932C6.91334 4.9 6.40991 4.98255 5.93818 5.16192C5.46645 5.3413 5.03623 5.6138 4.67342 5.96301C3.96383 6.65813 3.60946 7.67293 3.61036 9.00734L3.6107 22.2254Z" fill="white"/>
<path d="M17.6078 22.2254V9.5669C17.6078 7.32025 18.1635 5.57597 19.2749 4.33408C20.3863 3.09219 21.9678 2.47169 24.0194 2.47258C26.0922 2.47258 27.6836 2.97307 28.7934 3.97406C29.9033 4.97504 30.4584 6.38486 30.4589 8.20355C30.5031 9.22416 30.2081 10.2309 29.6194 11.0684C29.0598 11.81 28.1078 12.3938 26.7633 12.8198V12.9332C28.1644 13.4693 29.102 14.2339 29.5761 15.2271C30.0502 16.2204 30.2889 17.8568 30.292 20.1366V22.2254H27.6612V18.6629C27.6612 17.2537 27.2602 16.1555 26.4581 15.3683C25.6523 14.5775 24.4946 14.1825 22.9852 14.1834H21.4742V11.7364H23.0678C24.8608 11.7364 26.1024 11.3744 26.7925 10.6506C27.1279 10.3081 27.3919 9.90323 27.5696 9.45916C27.7472 9.01509 27.8349 8.54055 27.8277 8.06275C27.8432 7.63076 27.7595 7.20093 27.5828 6.80594C27.4061 6.41096 27.1411 6.06118 26.808 5.78317C26.0427 5.17948 25.0826 4.87271 24.1067 4.91999C22.8163 4.91999 21.8523 5.28001 21.2076 6.00205C20.5629 6.7241 20.2406 7.91627 20.2406 9.5669V22.2254H17.6078Z" fill="white"/>
<path d="M44.8223 22.2237H33.6787V7.39442C33.6528 6.78189 33.7563 6.17079 33.9829 5.60049C34.2092 5.03023 34.5534 4.51345 34.9932 4.0835C35.5543 3.54733 36.2514 3.17293 37.0102 3.00043C37.9128 2.81781 38.8325 2.73367 39.7532 2.74951H44.8234V5.19693H39.3909C37.3363 5.19693 36.3095 6.05033 36.3108 7.75711V10.9269H42.7765V13.377H36.3108V19.776H44.8223V22.2237Z" fill="white"/>
<path d="M50.6711 22.2237H48.0393V2.74951H54.9562C57.2707 2.74951 58.9973 3.26457 60.1359 4.2947C61.2745 5.32482 61.8436 6.94288 61.8436 9.14882V22.2237H59.2115V8.78546C59.2115 7.52555 58.8247 6.61232 58.0507 6.04576C57.1465 5.4428 56.071 5.14518 54.9831 5.19693H50.6711V22.2237Z" fill="white"/>
<path d="M64.3627 5.19726V2.74951H76.6788V5.19726H71.8363V22.2237H69.2049V5.19726H64.3627Z" fill="white"/>
<path d="M94.6562 12.5692C94.6441 11.5696 94.4879 10.5768 94.1921 9.62128C93.9269 8.73938 93.5001 7.91367 92.9333 7.18555C92.3934 6.49701 91.7107 5.93198 90.9314 5.52892C90.1031 5.12732 89.1938 4.91859 88.2721 4.91859C87.3507 4.91859 86.4414 5.12732 85.6131 5.52892C84.8341 5.93272 84.1515 6.49761 83.6105 7.18555C83.0438 7.91367 82.617 8.73938 82.3517 9.62128C82.0576 10.5772 81.9015 11.5697 81.8877 12.5692C81.8984 13.5695 82.0549 14.563 82.3521 15.5188C82.6163 16.3793 83.0438 17.1818 83.6109 17.8831C84.1572 18.5466 84.8401 19.0865 85.6134 19.4666C86.4461 19.8528 87.3537 20.0529 88.2724 20.0529C89.1914 20.0529 90.099 19.8528 90.9318 19.4666C91.7054 19.0872 92.388 18.5472 92.9336 17.8831C93.5008 17.1818 93.9282 16.3793 94.1925 15.5188C94.4913 14.563 94.6474 13.5689 94.6565 12.5682M79.0608 12.5682C79.0588 11.1489 79.2955 9.7393 79.7606 8.39741C80.1679 7.22289 80.8058 6.14032 81.6369 5.21228C82.4367 4.33341 83.4208 3.63973 84.5198 3.18028C86.9253 2.23695 89.6017 2.23695 92.0076 3.18028C93.1136 3.63579 94.1038 4.32984 94.9066 5.21228C95.7373 6.14072 96.375 7.22349 96.7826 8.39808C97.711 11.0931 97.7154 14.0178 96.795 16.7156C96.3978 17.8709 95.7639 18.9319 94.9335 19.8317C94.1219 20.6899 93.1334 21.3633 92.0351 21.8056C89.6122 22.7338 86.9287 22.7338 84.5057 21.8056C83.4077 21.363 82.4189 20.6897 81.6073 19.8317C80.7776 18.9316 80.144 17.8707 79.7468 16.7156C79.2885 15.3808 79.0571 13.9795 79.0615 12.5692" fill="white"/>
<path d="M103.754 22.2237H101.122V2.74951H108.037C110.353 2.74951 112.079 3.26457 113.218 4.2947C114.356 5.32482 114.925 6.94288 114.925 9.14882V22.2237H112.293V8.78546C112.293 7.52555 111.906 6.61232 111.132 6.04576C110.228 5.44324 109.153 5.14564 108.065 5.19693H103.754V22.2237Z" fill="white"/>
<path d="M127.718 22.2254H125.086V9.42642C125.086 7.23804 125.68 5.53159 126.866 4.30705C128.052 3.08251 129.624 2.47102 131.582 2.47258C133.672 2.47258 135.291 3.06561 136.439 4.25166C137.014 4.85629 137.462 5.56859 137.757 6.34703C138.053 7.12546 138.189 7.95447 138.159 8.78579C138.184 9.82258 137.968 10.8512 137.528 11.7918C137.157 12.5908 136.572 13.2735 135.837 13.7657C135.14 14.2249 134.374 14.5729 133.569 14.797C132.748 15.0219 131.901 15.1342 131.05 15.1307H128.95V12.6826H131.357C132.607 12.6826 133.592 12.3064 134.312 11.5539C134.67 11.1772 134.949 10.734 135.134 10.2497C135.319 9.76539 135.406 9.24952 135.39 8.73174C135.429 7.72432 135.072 6.74131 134.394 5.99104C133.73 5.27701 132.784 4.92022 131.554 4.92065C131.023 4.895 130.494 4.99056 130.005 5.19996C129.518 5.4094 129.084 5.72715 128.739 6.12884C128.027 7.0348 127.665 8.16428 127.718 9.31265V22.2254Z" fill="#28B4E2"/>
<path d="M156.413 12.5692C156.4 11.5698 156.244 10.5773 155.951 9.62128C155.685 8.73888 155.257 7.91303 154.689 7.18555C154.149 6.49704 153.467 5.93205 152.688 5.52892C151.86 5.12732 150.95 4.91858 150.029 4.91858C149.107 4.91858 148.197 5.12732 147.369 5.52892C146.591 5.93368 145.908 6.49841 145.367 7.18555C144.8 7.91367 144.374 8.73938 144.108 9.62128C143.815 10.5773 143.66 11.5698 143.648 12.5692C143.657 13.5697 143.812 14.5635 144.108 15.5198C144.372 16.3803 144.8 17.1828 145.367 17.8841C145.914 18.5468 146.596 19.0866 147.369 19.4676C148.201 19.8538 149.109 20.0538 150.028 20.0538C150.947 20.0538 151.855 19.8538 152.688 19.4676C153.461 19.0882 154.143 18.5481 154.688 17.8841C155.258 17.1834 155.686 16.3808 155.951 15.5198C156.247 14.5635 156.403 13.5697 156.412 12.5692M140.819 12.5692C140.817 11.1499 141.054 9.74013 141.52 8.39841C141.925 7.22339 142.561 6.14036 143.392 5.21261C144.193 4.33311 145.179 3.63939 146.28 3.18061C148.686 2.23699 151.363 2.23699 153.769 3.18061C154.874 3.63686 155.862 4.33087 156.664 5.21261C157.497 6.13989 158.135 7.22299 158.541 8.39841C159.47 11.0932 159.475 14.0177 158.556 16.7159C158.159 17.8717 157.524 18.9328 156.692 19.832C155.881 20.6894 154.893 21.3627 153.796 21.806C151.372 22.7341 148.688 22.7341 146.264 21.806C145.167 21.3627 144.178 20.6894 143.366 19.832C142.537 18.9315 141.903 17.8707 141.504 16.7159C141.047 15.3809 140.816 13.9798 140.82 12.5695" fill="#28B4E2"/>
<path d="M165.513 2.74951H162.881V22.2237H165.513V2.74951Z" fill="#28B4E2"/>
<path d="M172.065 22.2237H169.433V2.74951H176.349C178.664 2.74951 180.391 3.26457 181.529 4.2947C182.668 5.32482 183.236 6.94275 183.235 9.14849V22.2237H180.603V8.78546C180.603 7.52555 180.215 6.61232 179.439 6.04576C178.536 5.44274 177.462 5.14508 176.375 5.19693H172.065V22.2237Z" fill="#28B4E2"/>
<path d="M185.755 5.19726V2.74951H198.075V5.19726H193.232V22.2237H190.6V5.19726H185.755Z" fill="#28B4E2"/>
<g filter="url(#filter1_d_1644_9639)">
<path d="M201.538 6.22928V3.15992H200.384V2.74951H203.16V3.15992H202.001V6.22961L201.538 6.22928Z" fill="#28B4E2"/>
</g>
<g filter="url(#filter2_d_1644_9639)">
<path d="M203.621 6.22928V2.74951H204.318L205.147 5.21328C205.223 5.44284 205.279 5.61467 205.315 5.72878C205.355 5.60199 205.417 5.41581 205.501 5.17023L206.34 2.74951H206.963V6.22928H206.516V3.31707L205.497 6.22928H205.079L204.066 3.26702V6.22928H203.621Z" fill="#28B4E2"/>
</g>
</g>
<defs>
<filter id="filter0_d_1644_9639" x="25.9023" y="20.8023" width="18.8289" height="23.0475" filterUnits="userSpaceOnUse" color-interpolation-filters="sRGB">
<feFlood flood-opacity="0" result="BackgroundImageFix"/>
<feColorMatrix in="SourceAlpha" type="matrix" values="0 0 0 0 0 0 0 0 0 0 0 0 0 0 0 0 0 0 127 0" result="hardAlpha"/>
<feOffset dy="1.94812"/>
<feGaussianBlur stdDeviation="4.38327"/>
<feColorMatrix type="matrix" values="0 0 0 0 0 0 0 0 0 0 0 0 0 0 0 0 0 0 0.604 0"/>
<feBlend mode="normal" in2="BackgroundImageFix" result="effect1_dropShadow_1644_9639"/>
<feBlend mode="normal" in="SourceGraphic" in2="effect1_dropShadow_1644_9639" result="shape"/>
</filter>
<filter id="filter1_d_1644_9639" x="191.618" y="-4.06891" width="20.309" height="21.0132" filterUnits="userSpaceOnUse" color-interpolation-filters="sRGB">
<feFlood flood-opacity="0" result="BackgroundImageFix"/>
<feColorMatrix in="SourceAlpha" type="matrix" values="0 0 0 0 0 0 0 0 0 0 0 0 0 0 0 0 0 0 127 0" result="hardAlpha"/>
<feOffset dy="1.94812"/>
<feGaussianBlur stdDeviation="4.38327"/>
<feColorMatrix type="matrix" values="0 0 0 0 0 0 0 0 0 0 0 0 0 0 0 0 0 0 0.604 0"/>
<feBlend mode="normal" in2="BackgroundImageFix" result="effect1_dropShadow_1644_9639"/>
<feBlend mode="normal" in="SourceGraphic" in2="effect1_dropShadow_1644_9639" result="shape"/>
</filter>
<filter id="filter2_d_1644_9639" x="194.854" y="-4.06891" width="20.8757" height="21.0129" filterUnits="userSpaceOnUse" color-interpolation-filters="sRGB">
<feFlood flood-opacity="0" result="BackgroundImageFix"/>
<feColorMatrix in="SourceAlpha" type="matrix" values="0 0 0 0 0 0 0 0 0 0 0 0 0 0 0 0 0 0 127 0" result="hardAlpha"/>
<feOffset dy="1.94812"/>
<feGaussianBlur stdDeviation="4.38327"/>
<feColorMatrix type="matrix" values="0 0 0 0 0 0 0 0 0 0 0 0 0 0 0 0 0 0 0.604 0"/>
<feBlend mode="normal" in2="BackgroundImageFix" result="effect1_dropShadow_1644_9639"/>
<feBlend mode="normal" in="SourceGraphic" in2="effect1_dropShadow_1644_9639" result="shape"/>
</filter>
<clipPath id="clip0_1644_9639">
<rect width="212" height="37" fill="white"/>
</clipPath>
</defs>
</svg>
