<svg width="35" height="35" viewBox="0 0 35 35" fill="none" xmlns="http://www.w3.org/2000/svg">
<circle cx="17" cy="17" r="17" transform="matrix(4.37114e-08 1 1 -4.37114e-08 0.484375 0.484375)" fill="white" stroke="#7ED4F5" stroke-width="0.969727"/>
<path d="M19.6194 8.73338L17.7625 7.75928V7.57766H17.605V7.25571H17.5884C17.6879 7.18967 17.7542 7.0741 17.7542 6.95027C17.7542 6.76866 17.6133 6.61181 17.4309 6.58705L17.3895 5.72852L17.3397 6.58705C17.1574 6.60356 17.0165 6.76041 17.0165 6.95027C17.0165 7.08236 17.0828 7.18967 17.1822 7.25571H17.1657V7.57766H17.0165V7.73451L15.8642 8.34539L15.1016 8.74164V8.86546L15.2591 8.87372L15.3171 9.16265V12.4317H15.4249V12.3574V9.15439V9.13788L16.2538 8.90674V12.2336H16.4362V8.89023H18.2931V12.2336H18.4754V8.90674L19.3127 9.12963V9.17916V12.4317H19.4204V9.21218L19.437 8.89023H19.6111V8.77466L19.5779 8.74164H19.6194V8.73338Z" fill="#28B4E2"/>
<path d="M16.7184 15.5344V18.0357H16.0138V15.5344H16.7267H16.7184ZM20.4902 20.4297L20.7057 23.5584H20.0426L19.8768 20.3966L20.4902 20.4297ZM13.3695 19.8023L13.8337 19.9839C13.8337 19.9839 14.3559 20.0417 14.3559 20.1985C14.3559 20.3554 14.3559 20.6608 14.6626 20.8094C14.9693 20.958 14.9693 21.3295 15.1268 21.3295C15.2843 21.3295 15.8978 21.2965 15.9226 21.5441C15.9558 21.7918 16.3869 21.9073 16.5029 22.188C16.6273 22.4604 16.8428 23.1621 17.0583 23.1621C17.2738 23.1621 17.5806 23.4098 17.7629 23.5914C17.9453 23.773 18.9898 23.6822 19.0478 23.9876C19.1058 24.2931 19.4126 24.1445 19.6612 24.4169C19.9099 24.6893 20.026 24.9039 20.457 25.1186C20.8881 25.3332 21.2528 25.7295 21.5596 25.7625C21.8663 25.7955 22.4217 25.4901 22.5709 25.7625C22.6952 25.9854 23.4413 26.1009 23.7397 26.1422H23.7729L23.7231 25.6387V25.5561L23.3584 25.2342L23.1263 24.9535L22.9688 24.648L22.8859 24.2518L22.8113 24.1445L22.7864 24.0619L22.7615 23.8968L22.6621 23.6657L22.6123 23.3767V23.0548L22.5294 22.7328L22.43 22.1385V21.5111L22.3056 21.2965L22.3305 21.0323L22.1813 20.6443V20.4132L22.0818 20.2233L22.1067 19.8766L22.0321 19.6454L21.8746 19.2492L21.9243 19.1006L21.8497 18.886L21.8248 18.5227L21.659 17.9779L21.5844 17.6064L21.4269 17.3918V17.0286L21.4186 16.7892L21.3938 16.6406L21.3192 16.3764L21.2446 16.1865L21.2777 15.8398V15.6334L21.2694 15.3115V14.7666L21.1948 14.6428V14.3952V14.2466L21.2197 14.0402L21.3109 13.8173L21.0207 13.4128L19.9182 12.8184L16.9754 12.7441L13.585 13.1156L13.4109 13.7678L13.4772 13.8668L13.3529 13.9411V14.2053L13.2202 14.4695L13.2037 14.7336L13.1871 14.94L13.1705 15.1711L13.1042 15.3032V15.4105L13.0959 15.6169L13.0627 15.8068L12.9964 15.9636V16.17L12.9881 16.5002L12.8969 16.6818V17.012L12.9052 17.2349L12.814 17.367L12.7643 17.6477L12.7975 17.8788L12.698 17.9284V18.2173L12.6317 18.4732L12.6565 18.7786L12.5654 18.886L12.5819 19.2244L12.5156 19.3317V19.5051L12.9301 19.4638L13.3612 19.8023H13.3695Z" fill="#28B4E2"/>
<path d="M17.7715 9.27734H16.9591C16.9591 9.27734 16.7188 9.35164 16.7188 10.3835C16.7188 11.4154 16.9591 11.5723 16.9591 11.5723H17.7715C17.7715 11.5723 17.9705 11.4319 17.9705 10.4C17.9705 9.36815 17.7715 9.27734 17.7715 9.27734Z" fill="#28B4E2"/>
<path d="M3.58689 17.0134L3.65321 17.0382C3.86874 9.62506 9.96987 3.67311 17.4637 3.67311C24.9574 3.67311 31.2824 9.83144 31.2824 17.4344C31.2824 20.7365 30.1136 23.7744 28.1655 26.1436C28.3396 26.1436 28.5137 26.1188 28.696 26.0858C28.7624 26.0775 28.8618 26.061 28.9281 26.0528C29.0028 26.1023 29.3675 26.3582 29.4753 26.4077C31.3653 23.9064 32.4844 20.8025 32.4844 17.4262C32.4761 9.17929 25.7532 2.48438 17.4637 2.48438C9.17407 2.48438 3.01491 8.63445 2.48438 16.419L3.58689 17.0134Z" fill="#28B4E2"/>
</svg>
