<svg width="26" height="26" viewBox="0 0 26 26" fill="none" xmlns="http://www.w3.org/2000/svg">
<g clip-path="url(#clip0_996_36006)">
<path d="M13 11.8084C12.3391 11.8084 11.8083 12.3392 11.8083 13C11.8083 13.6609 12.3391 14.1917 13 14.1917C13.6608 14.1917 14.1916 13.6609 14.1916 13C14.1916 12.3392 13.6608 11.8084 13 11.8084ZM13 2.16669C7.01996 2.16669 2.16663 7.02002 2.16663 13C2.16663 18.98 7.01996 23.8334 13 23.8334C18.98 23.8334 23.8333 18.98 23.8333 13C23.8333 7.02002 18.98 2.16669 13 2.16669ZM15.3725 15.3725L6.49996 19.5L10.6275 10.6275L19.5 6.50002L15.3725 15.3725Z" fill="white"/>
</g>
<defs>
<clipPath id="clip0_996_36006">
<rect width="26" height="26" fill="white"/>
</clipPath>
</defs>
</svg>
