<svg width="618" height="442" viewBox="0 0 618 442" fill="none" xmlns="http://www.w3.org/2000/svg">
<path d="M271.234 -290.369C109.772 -197.149 54.4512 9.31114 147.671 170.773C240.891 332.235 447.352 387.556 608.813 294.336C770.275 201.116 825.596 -5.34491 732.376 -166.807L821.032 -217.992C942.521 -7.5671 870.424 261.502 659.999 382.991C449.574 504.48 180.505 432.383 59.0156 221.958C-62.4733 11.5333 9.6236 -257.536 220.049 -379.025C430.474 -500.514 699.543 -428.417 821.032 -217.992L732.376 -166.807C639.156 -328.268 432.696 -383.589 271.234 -290.369Z" fill="url(#paint0_linear_255_22431)"/>
<defs>
<linearGradient id="paint0_linear_255_22431" x1="59.0156" y1="221.958" x2="821.032" y2="-217.992" gradientUnits="userSpaceOnUse">
<stop stop-color="#65C6EE" stop-opacity="0"/>
<stop offset="1" stop-color="#65C6EE"/>
</linearGradient>
</defs>
</svg>
