<svg width="38" height="38" viewBox="0 0 38 38" fill="none" xmlns="http://www.w3.org/2000/svg">
<path d="M21.4985 8.80497L19.1687 7.57782V7.34903H18.9711V6.94345H18.9503C19.0751 6.86025 19.1583 6.71466 19.1583 6.55867C19.1583 6.32988 18.9815 6.13228 18.7527 6.10109L18.7007 5.01953L18.6383 6.10109C18.4095 6.12188 18.2327 6.31948 18.2327 6.55867C18.2327 6.72506 18.3159 6.86025 18.4407 6.94345H18.4199V7.34903H18.2327V7.54662L16.7869 8.31619L15.8301 8.81537V8.97136L16.0277 8.98176L16.1005 9.34575V13.464H16.2357V13.3704V9.33535V9.31455L17.2758 9.02336V13.2144H17.5046V9.00256H19.8344V13.2144H20.0632V9.02336L21.1137 9.30415V9.36655V13.464H21.2489V9.40815L21.2697 9.00256H21.4881V8.85697L21.4465 8.81537H21.4985V8.80497Z" fill="white"/>
<path d="M17.8582 17.3725V20.5235H16.9741V17.3725H17.8686H17.8582ZM22.5905 23.5394L22.8609 27.4809H22.0289L21.8209 23.4978L22.5905 23.5394ZM13.6562 22.749L14.2387 22.9778C14.2387 22.9778 14.8939 23.0506 14.8939 23.2482C14.8939 23.4458 14.8939 23.8306 15.2788 24.0178C15.6636 24.205 15.6636 24.673 15.8612 24.673C16.0588 24.673 16.8285 24.6314 16.8597 24.9434C16.9013 25.2553 17.4421 25.4009 17.5877 25.7545C17.7437 26.0977 18.0142 26.9817 18.2846 26.9817C18.555 26.9817 18.9398 27.2937 19.1687 27.5224C19.3975 27.7512 20.708 27.6368 20.7808 28.0216C20.8536 28.4064 21.2384 28.2192 21.5504 28.5624C21.8625 28.9056 22.0081 29.176 22.5489 29.4464C23.0897 29.7168 23.5474 30.2159 23.9322 30.2575C24.317 30.2991 25.0139 29.9144 25.2011 30.2575C25.3571 30.5383 26.2932 30.6839 26.6676 30.7359H26.7092L26.6468 30.1015V29.9975L26.1892 29.592L25.898 29.2384L25.7003 28.8536L25.5963 28.3544L25.5027 28.2192L25.4715 28.1152L25.4403 27.9072L25.3155 27.616L25.2531 27.2521V26.8465L25.1491 26.4409L25.0243 25.6921V24.9018L24.8683 24.6314L24.8995 24.2986L24.7123 23.8098V23.5186L24.5875 23.2794L24.6187 22.8426L24.5251 22.5515L24.3274 22.0523L24.3898 21.8651L24.2962 21.5947L24.265 21.1371L24.057 20.4507L23.9634 19.9828L23.7658 19.7124V19.2548L23.7554 18.9532L23.7242 18.766L23.6306 18.4332L23.537 18.194L23.5786 17.7573V17.4973L23.5682 17.0917V16.4053L23.4746 16.2493V15.9373V15.7501L23.5058 15.4902L23.6202 15.2094L23.2562 14.6998L21.8729 13.951L18.1806 13.8574L13.9267 14.3254L13.7082 15.147L13.7915 15.2718L13.6354 15.3654V15.6981L13.469 16.0309L13.4482 16.3637L13.4274 16.6237L13.4066 16.9149L13.3234 17.0813V17.2165L13.313 17.4765L13.2714 17.7157L13.1882 17.9133V18.1732L13.1778 18.5892L13.0634 18.818V19.234L13.0738 19.5148L12.9594 19.6812L12.897 20.0348L12.9386 20.326L12.8138 20.3883V20.7523L12.7306 21.0747L12.7618 21.4595L12.6474 21.5947L12.6682 22.0211L12.585 22.1563V22.3747L13.105 22.3227L13.6458 22.749H13.6562Z" fill="white"/>
<path d="M19.1788 9.49023H18.1595C18.1595 9.49023 17.8579 9.58383 17.8579 10.8838C17.8579 12.1837 18.1595 12.3813 18.1595 12.3813H19.1788C19.1788 12.3813 19.4284 12.2045 19.4284 10.9046C19.4284 9.60463 19.1788 9.49023 19.1788 9.49023Z" fill="white"/>
<path d="M1.3833 19.2349L1.46651 19.2661C1.73693 9.92726 9.3919 2.42918 18.7942 2.42918C28.1965 2.42918 36.1323 10.1873 36.1323 19.7652C36.1323 23.9251 34.6658 27.7521 32.2216 30.7368C32.44 30.7368 32.6584 30.7056 32.8873 30.664C32.9705 30.6536 33.0953 30.6328 33.1785 30.6224C33.2721 30.6848 33.7297 31.0072 33.8649 31.0696C36.2363 27.9185 37.6404 24.0083 37.6404 19.7548C37.63 9.36569 29.195 0.931641 18.7942 0.931641C8.39343 0.931641 0.66565 8.67931 0 18.4861L1.3833 19.2349Z" fill="white"/>
</svg>
