<svg width="80" height="80" viewBox="0 0 80 80" fill="none" xmlns="http://www.w3.org/2000/svg">
<rect width="80" height="80" fill="white"/>
<path d="M28.3848 25.0163C29.2174 24.9606 30.4824 24.9979 31.3357 24.9977L36.8743 24.9971C41.7519 24.997 46.7825 24.9367 51.6479 25.0088C51.588 25.9798 51.6523 27.3438 51.6288 28.3863C50.7405 28.4143 49.8416 28.3872 48.9518 28.4155C48.7516 28.4218 48.5691 28.4149 48.3707 28.3879C48.3298 29.5581 48.4511 30.8288 48.2125 31.9682C47.9967 32.7526 47.7221 33.8981 47.3111 34.6082C46.4456 36.1038 45.0176 37.2906 43.8407 38.527C43.4655 38.9211 42.6141 39.5883 42.5301 40.0847C42.6639 40.3774 45.1666 42.7842 45.6126 43.2275C47.1634 44.7689 48.0193 46.4075 48.3179 48.6156C48.4348 49.4797 48.3676 50.6933 48.3548 51.6105C49.4114 51.6531 50.5721 51.6356 51.6375 51.639C51.6455 52.7621 51.645 53.8853 51.636 55.0084L28.344 55.006C28.3716 54.6865 28.3545 54.1208 28.354 53.7852L28.3546 51.6338C29.4261 51.632 30.5675 51.6119 31.6331 51.6418C31.6296 50.772 31.6064 49.4956 31.6663 48.6458C31.7224 47.8481 32.3279 46.0965 32.6769 45.3936C33.0173 44.9154 33.4185 44.222 33.8202 43.8084C34.7507 42.8663 35.6832 41.9198 36.6297 40.9952C37.1473 40.4897 37.5795 40.4235 37.3233 39.6211C37.0346 39.3332 36.6472 39.0274 36.3659 38.7298C35.1156 37.4074 33.6407 36.2466 32.7154 34.6593C32.5134 34.3129 32.3235 33.7795 32.1841 33.4023C31.9047 32.6643 31.7259 31.8922 31.6522 31.1066C31.5944 30.4546 31.635 29.1011 31.6264 28.3972C30.5941 28.4536 29.3437 28.3395 28.3439 28.3941C28.3669 27.9106 28.3081 25.2721 28.3848 25.0163ZM35.0066 51.6185C35.6869 51.6294 36.3673 51.627 37.0476 51.6114C37.1328 51.3995 37.5437 50.5186 37.6693 50.3724C38.1984 49.7565 39.1862 48.4691 40.0665 48.4788C41.069 48.6302 42.663 50.6291 42.9361 51.5629C43.5866 51.6546 44.3308 51.634 44.9921 51.6316C45.008 50.346 45.0913 48.7563 44.6384 47.5318C44.4652 47.0636 43.6579 46.015 43.2721 45.6336C42.3141 44.6862 41.3567 43.7091 40.3937 42.7653C40.2797 42.6536 40.1381 42.6002 39.9815 42.5831C39.8713 42.6138 39.7134 42.6595 39.6292 42.739C38.8081 43.5135 38.0398 44.358 37.2238 45.14C36.5915 45.7459 36.0525 46.3184 35.6073 47.0826C34.8274 48.4215 34.9941 50.1197 35.0066 51.6185ZM35.9192 33.2677C36.5406 33.3899 39.0321 33.3682 39.7694 33.3522C41.0698 33.324 42.9405 33.4218 44.1724 33.3075C44.2651 33.1441 44.3764 32.9596 44.4516 32.7898C45.1425 31.5516 45.0059 29.8113 44.9985 28.3954C44.3376 28.4248 43.5972 28.4033 42.9303 28.4006L39.6879 28.398L36.699 28.4006C36.3014 28.4022 35.3618 28.462 35.0379 28.3601C34.9733 28.6752 35.001 29.2144 34.9954 29.5443C34.9763 30.6545 34.9668 32.4807 35.9192 33.2677Z" fill="#053E56"/>
</svg>
