<svg width="34" height="34" viewBox="0 0 34 34" fill="none" xmlns="http://www.w3.org/2000/svg">
<path d="M19.135 8.24937L17.2781 7.27527V7.09366H17.1206V6.77171H17.1041C17.2035 6.70566 17.2699 6.59009 17.2699 6.46627C17.2699 6.28465 17.1289 6.12781 16.9466 6.10304L16.9051 5.24451L16.8554 6.10304C16.673 6.11955 16.5321 6.2764 16.5321 6.46627C16.5321 6.59835 16.5984 6.70566 16.6979 6.77171H16.6813V7.09366H16.5321V7.2505L15.3798 7.86138L14.6172 8.25763V8.38146L14.7747 8.38971L14.8327 8.67864V11.9477H14.9405V11.8734V8.67038V8.65387L15.7694 8.42273V11.7495H15.9518V8.40622H17.8087V11.7495H17.991V8.42273L18.8283 8.64562V8.69515V11.9477H18.9361V8.72817L18.9526 8.40622H19.1267V8.29065L19.0936 8.25763H19.135V8.24937Z" fill="#28B4E2"/>
<path d="M16.2341 15.0508V17.5521H15.5295V15.0508H16.2424H16.2341ZM20.0058 19.9461L20.2214 23.0748H19.5582L19.3924 19.9131L20.0058 19.9461ZM12.8851 19.3187L13.3493 19.5003C13.3493 19.5003 13.8715 19.5581 13.8715 19.7149C13.8715 19.8718 13.8715 20.1772 14.1783 20.3258C14.485 20.4744 14.485 20.8459 14.6425 20.8459C14.8 20.8459 15.4134 20.8129 15.4383 21.0605C15.4714 21.3082 15.9025 21.4238 16.0185 21.7044C16.1429 21.9768 16.3584 22.6785 16.5739 22.6785C16.7895 22.6785 17.0962 22.9262 17.2786 23.1078C17.4609 23.2894 18.5054 23.1986 18.5634 23.504C18.6215 23.8095 18.9282 23.6609 19.1769 23.9333C19.4256 24.2057 19.5416 24.4204 19.9727 24.635C20.4037 24.8496 20.7685 25.2459 21.0752 25.2789C21.3819 25.3119 21.9373 25.0065 22.0865 25.2789C22.2109 25.5018 22.9569 25.6174 23.2553 25.6586H23.2885L23.2388 25.1551V25.0725L22.874 24.7506L22.6419 24.4699L22.4844 24.1645L22.4015 23.7682L22.3269 23.6609L22.302 23.5783L22.2772 23.4132L22.1777 23.1821L22.128 22.8932V22.5712L22.0451 22.2493L21.9456 21.6549V21.0275L21.8212 20.8129L21.8461 20.5487L21.6969 20.1607V19.9296L21.5974 19.7397L21.6223 19.393L21.5477 19.1618L21.3902 18.7656L21.4399 18.617L21.3653 18.4024L21.3404 18.0392L21.1747 17.4943L21.1001 17.1228L20.9425 16.9082V16.545L20.9343 16.3056L20.9094 16.157L20.8348 15.8928L20.7602 15.7029L20.7933 15.3562V15.1499L20.785 14.8279V14.2831L20.7104 14.1592V13.9116V13.763L20.7353 13.5566L20.8265 13.3337L20.5364 12.9292L19.4338 12.3349L16.491 12.2606L13.1006 12.632L12.9265 13.2842L12.9928 13.3833L12.8685 13.4576V13.7217L12.7359 13.9859L12.7193 14.25L12.7027 14.4564L12.6861 14.6876L12.6198 14.8196V14.927L12.6115 15.1333L12.5784 15.3232L12.512 15.4801V15.6864L12.5038 16.0166L12.4126 16.1983V16.5285L12.4209 16.7514L12.3297 16.8834L12.2799 17.1641L12.3131 17.3952L12.2136 17.4448V17.7337L12.1473 17.9896L12.1722 18.2951L12.081 18.4024L12.0976 18.7408L12.0312 18.8482V19.0215L12.4457 18.9802L12.8768 19.3187H12.8851Z" fill="#28B4E2"/>
<path d="M17.2852 8.79382H16.4728C16.4728 8.79382 16.2324 8.86812 16.2324 9.90001C16.2324 10.9319 16.2324 11.0887 16.4728 11.0887H17.2852C17.2852 11.0887 17.4842 10.9484 17.4842 9.91652C17.4842 8.88463 17.2852 8.79382 17.2852 8.79382Z" fill="#28B4E2"/>
<path d="M3.10251 16.5291L3.16883 16.5539C3.38436 9.14075 9.48549 3.1888 16.9793 3.1888C24.4731 3.1888 30.798 9.34713 30.798 16.9501C30.798 20.2522 29.6292 23.29 27.6811 25.6593C27.8552 25.6593 28.0293 25.6345 28.2117 25.6015C28.278 25.5932 28.3775 25.5767 28.4438 25.5685C28.5184 25.618 28.8831 25.8739 28.9909 25.9234C30.8809 23.4221 32 20.3182 32 16.9418C31.9917 8.69497 25.2689 2.00006 16.9793 2.00006C8.68969 2.00006 2.53053 8.15013 2 15.9347L3.10251 16.5291Z" fill="#28B4E2"/>
</svg>
